<?xml version="1.0" encoding="UTF-8"?>
<svg xmlns="http://www.w3.org/2000/svg" xmlns:xlink="http://www.w3.org/1999/xlink" width="50px" height="60px" viewBox="0 0 50 60" version="1.1">
<g id="surface1">
<path style=" stroke:none;fill-rule:nonzero;fill:rgb(0%,0%,0%);fill-opacity:1;" d="M 20.570312 51.972656 L 2.511719 51.972656 C 1.125 51.972656 0 50.855469 0 49.476562 L 0 2.523438 C 0 1.144531 1.121094 0.0273438 2.511719 0.0273438 L 26.207031 0.0273438 C 26.636719 0.0273438 27.03125 0.222656 27.289062 0.539062 L 39.652344 12.503906 C 40.316406 13.164062 40.667969 13.683594 40.667969 13.84375 L 40.664062 29.703125 C 39.769531 29.328125 38.832031 29.035156 37.863281 28.828125 L 37.863281 15.511719 L 26.207031 15.511719 C 25.425781 15.511719 24.800781 14.878906 24.800781 14.109375 L 24.800781 2.804688 L 2.804688 2.804688 L 2.804688 49.183594 L 19.347656 49.183594 C 19.664062 50.160156 20.074219 51.09375 20.570312 51.972656 Z M 34.492188 32.15625 C 37.863281 32.15625 40.917969 33.515625 43.128906 35.710938 C 45.339844 37.910156 46.703125 40.941406 46.703125 44.292969 C 46.703125 46.746094 45.972656 49.027344 44.714844 50.9375 L 50 56.660156 L 46.355469 59.972656 L 41.257812 54.398438 C 39.320312 55.679688 36.996094 56.429688 34.492188 56.429688 C 31.121094 56.429688 28.066406 55.070312 25.859375 52.875 C 23.648438 50.679688 22.28125 47.644531 22.28125 44.292969 C 22.28125 40.941406 23.648438 37.910156 25.855469 35.710938 C 28.066406 33.515625 31.121094 32.15625 34.492188 32.15625 Z M 41.523438 37.304688 C 39.726562 35.519531 37.238281 34.410156 34.492188 34.410156 C 31.746094 34.410156 29.261719 35.519531 27.460938 37.304688 C 25.664062 39.09375 24.550781 41.566406 24.550781 44.292969 C 24.550781 47.023438 25.664062 49.492188 27.460938 51.28125 C 29.261719 53.070312 31.746094 54.175781 34.492188 54.175781 C 37.238281 54.175781 39.726562 53.070312 41.523438 51.28125 C 43.324219 49.492188 44.4375 47.023438 44.4375 44.292969 C 44.4375 41.566406 43.324219 39.09375 41.523438 37.304688 Z M 37.238281 39.8125 L 38.945312 41.519531 L 36.191406 44.292969 L 38.949219 47.070312 L 37.234375 48.769531 L 34.492188 46.007812 L 31.75 48.773438 L 30.039062 47.066406 L 32.792969 44.292969 L 30.039062 41.515625 L 31.75 39.816406 L 34.492188 42.574219 Z M 37.238281 39.8125 "/>
</g>
</svg>
